<svg width="15" height="16" viewBox="0 0 15 16" fill="none" xmlns="http://www.w3.org/2000/svg">
<path d="M11.4706 3.92187C11.4706 6.0555 9.6929 7.78514 7.5 7.78514C5.3071 7.78514 3.52941 6.0555 3.52941 3.92187C3.52941 1.78824 5.3071 0.0585938 7.5 0.0585938C9.6929 0.0585938 11.4706 1.78824 11.4706 3.92187Z" fill="#8C8989"/>
<path d="M12.3529 15.9409C13.8149 15.9409 15.0438 14.7167 14.5131 13.3545C14.4862 13.2854 14.4582 13.2167 14.4291 13.1484C14.0522 12.263 13.4997 11.4586 12.8033 10.781C12.1069 10.1034 11.2801 9.56585 10.3701 9.19912C9.46018 8.8324 8.48491 8.64365 7.5 8.64365C6.51509 8.64365 5.53982 8.8324 4.62987 9.19912C3.71993 9.56585 2.89314 10.1034 2.1967 10.781C1.50026 11.4586 0.947814 12.263 0.570903 13.1484C0.541811 13.2167 0.513808 13.2854 0.4869 13.3545C-0.0437827 14.7167 1.18513 15.9409 2.64706 15.9409H12.3529Z" fill="#8C8989"/>
</svg>
